<?xml version="1.0" encoding="iso-8859-1"?>
<!-- Generator: Adobe Illustrator 19.0.0, SVG Export Plug-In . SVG Version: 6.00 Build 0)  -->
<svg version="1.1" id="Layer_1" xmlns="http://www.w3.org/2000/svg" xmlns:xlink="http://www.w3.org/1999/xlink" x="0px" y="0px"
	 viewBox="0 0 473.931 473.931" style="enable-background:new 0 0 473.931 473.931;" xml:space="preserve">
<circle style="fill:#4ABC96;" cx="236.966" cy="236.966" r="236.966"/>
<g>
	<rect x="94.558" y="207.181" style="fill:#3F3F3E;" width="292.119" height="76.392"/>
	<path style="fill:#82725A;" d="M94.61,211.409c0,0,83.168,32.703,145.412,32.703c68.029,0,146.621-33.01,146.621-33.01V170.89
		c0-20.4-20.097-19.495-20.097-19.495H113.701c-19.794,0-19.09,19.495-19.09,19.495V211.409z M386.644,316.71v-94.326
		c0,0-63.258,31.58-147.032,31.58c-77.062,0-145.001-32.508-145.001-32.508v95.254c0,19.805,18.784,19.498,18.784,19.498h253.459
		C387.86,336.208,386.644,316.71,386.644,316.71z"/>
	<path style="fill:#5B4F3F;" d="M94.61,211.409c0,0,83.168,32.703,145.412,32.703c68.029,0,146.621-33.01,146.621-33.01V170.89
		c0-20.4-20.097-19.495-20.097-19.495H113.701c-19.794,0-19.09,19.495-19.09,19.495V211.409z"/>
	<path style="fill:#3F3F3E;" d="M288.86,151.395v-19.801c0-20.101-18.885-19.188-18.885-19.188h-59.097
		c-18.582,0-19.191,19.495-19.191,19.495v19.495H288.86z M210.878,141.042c0-8.827,9.747-9.444,9.747-9.444h39.292
		c10.361,0,9.751,10.66,9.751,10.66l-0.303,9.141h-58.487V141.042z"/>
	<circle style="fill:#F1EDCD;" cx="238.126" cy="245.995" r="64.856"/>
	<g>
		<path style="fill:#D62127;" d="M251.274,285.418c0,4.217-3.416,7.633-7.629,7.633h-11.019c-4.213,0-7.633-3.416-7.633-7.633
			v-78.839c0-4.213,3.416-7.629,7.633-7.629h11.019c4.213,0,7.629,3.416,7.629,7.629V285.418z"/>
		<path style="fill:#D62127;" d="M198.71,259.136c-4.213,0-7.629-3.416-7.629-7.629v-11.019c0-4.213,3.416-7.629,7.629-7.629h78.846
			c4.213,0,7.629,3.416,7.629,7.629v11.019c0,4.213-3.416,7.629-7.629,7.629H198.71z"/>
	</g>
</g>
<g>
</g>
<g>
</g>
<g>
</g>
<g>
</g>
<g>
</g>
<g>
</g>
<g>
</g>
<g>
</g>
<g>
</g>
<g>
</g>
<g>
</g>
<g>
</g>
<g>
</g>
<g>
</g>
<g>
</g>
</svg>
