<?xml version="1.0" encoding="utf-8"?>
<!-- Generator: Adobe Illustrator 17.0.0, SVG Export Plug-In . SVG Version: 6.00 Build 0)  -->
<!DOCTYPE svg PUBLIC "-//W3C//DTD SVG 1.0//EN" "http://www.w3.org/TR/2001/REC-SVG-20010904/DTD/svg10.dtd">
<svg version="1.0" id="Layer_1" xmlns="http://www.w3.org/2000/svg" xmlns:xlink="http://www.w3.org/1999/xlink" x="0px" y="0px"
	 width="413.5px" height="122.5px" viewBox="215.695 240.89 413.5 122.5" enable-background="new 215.695 240.89 413.5 122.5"
	 xml:space="preserve">
<g>
	<g>
		<rect x="353.438" y="258.27" fill="#1C2674" width="19.528" height="87.35"/>
		<path fill="#1C2674" d="M386.614,258.27h42.415c27.507,0,38.845,9.449,38.845,28.137c0,10.079-5.039,26.667-35.696,26.667h-26.037
			v32.546h-19.528V258.27 M406.142,298.585h22.887c10.499,0,18.688-2.94,18.688-12.389c0-11.759-10.919-13.648-22.047-13.648
			h-19.318v26.037H406.142z"/>
		<path fill="#1C2674" d="M475.434,258.27h42.415c27.507,0,38.845,9.449,38.845,28.137c0,10.079-5.039,26.667-35.696,26.667h-26.037
			v32.546h-19.528V258.27 M494.961,298.585h22.887c10.499,0,18.688-2.94,18.688-12.389c0-11.759-10.919-13.648-22.047-13.648
			h-19.528V298.585z"/>
		<polyline fill="#1C2674" points="628.086,258.27 628.086,272.548 582.521,272.548 582.521,293.755 625.356,293.755 
			625.356,308.034 582.521,308.034 582.521,345.619 562.783,345.619 562.783,258.27 628.086,258.27 		"/>
	</g>
	<g>
		<path fill="#1C2674" d="M312.913,334.071c-1.68,0.63-3.36,0.84-4.829,0.63c-1.89-0.21-5.669-2.73-3.36-5.249
			c2.31-2.31,3.15-5.459,3.15-9.239c0-6.929-4.409-14.278-11.759-12.809c-7.349,1.68-10.289,7.349-10.289,14.278
			c0,5.249,4.199,10.919,7.979,12.389c1.05,2.52,1.26,4.409-1.47,7.349c-5.039,5.249-15.538,6.299-19.738,6.299
			c-22.047,0-41.785-10.079-53.334-25.407c7.979,23.097,29.816,39.685,55.643,39.685c30.656,0,56.063-23.517,58.583-53.544
			C332.65,315.803,322.152,330.501,312.913,334.071z"/>
		<path fill="#00A4E4" d="M274.067,248.401c30.866,0,54.384,23.097,59.633,51.234c0-0.84,0-1.68,0-2.52
			c-1.47-32.126-28.767-56.273-61.103-55.014c-32.126,1.47-56.903,27.717-55.433,60.053c0,0.84,0,1.68,0.21,2.52
			c0.42-4.409,1.26-8.819,2.52-13.018c3.15,2.1,6.509,4.199,10.079,5.669c-0.42,4.829-0.63,9.659-0.63,13.858
			c0-1.26,0.84-6.299,2.73-13.018c4.409,1.89,9.029,3.36,13.858,4.409c-0.42,8.399,0.42,16.588,2.31,24.357
			c0.21-5.669,0.63-15.118,1.47-23.727c3.57,0.63,7.349,1.05,11.129,1.26c9.449,0.42,17.638,0.42,24.357-2.73
			c-4.829,0.84-10.079,1.05-15.538,0.84c-6.509-0.21-13.018-1.26-19.318-2.73c0.42-3.57,0.84-6.719,1.47-9.029
			c0.42-1.68,0.84-3.15,1.26-4.619c7.559,1.47,15.328,1.68,22.047,0.42c-6.929-0.21-14.068-1.26-21.208-3.36
			c1.68-5.039,3.36-9.659,5.459-13.858c4.829,0.63,9.659,0.42,14.068-0.63c-3.99-0.21-8.399-0.63-13.018-1.68
			C263.778,260.159,268.398,254.07,274.067,248.401z M249.08,254.28c-1.89,2.31-3.78,4.829-5.879,7.979
			c-1.26-0.63-2.52-1.26-3.78-1.89C242.361,258.06,245.511,255.96,249.08,254.28z M236.272,263.099c1.68,0.84,3.36,1.47,4.829,2.1
			c-1.89,3.15-3.99,6.929-6.089,10.919c-2.31-1.26-4.409-2.52-6.509-3.99C230.812,268.978,233.542,265.829,236.272,263.099z
			 M220.944,287.246c1.26-3.78,3.15-7.559,5.039-10.919c2.31,1.47,4.619,2.73,7.349,3.99c-1.47,3.57-2.31,7.979-3.15,12.599
			C227.033,291.236,223.883,289.346,220.944,287.246z M245.721,299.005c-4.409-1.26-8.819-2.94-12.808-4.829
			c1.26-3.78,2.73-7.979,4.619-12.179c3.36,1.26,6.929,2.52,10.499,3.36C246.98,289.976,246.141,294.595,245.721,299.005z
			 M248.66,282.207c-3.36-1.05-6.509-2.31-9.449-3.78c1.89-3.99,4.2-7.769,6.719-11.549c2.52,0.84,5.039,1.47,7.559,1.89
			C251.6,273.178,250.13,277.587,248.66,282.207z M248.03,264.149c4.619-5.879,10.079-10.919,16.798-14.278
			c-3.78,5.039-7.349,10.289-10.079,16.378C252.44,265.619,250.13,264.989,248.03,264.149z"/>
	</g>
</g>
</svg>
